<svg width="1024" height="1024" viewBox="0 0 1024 1024" class="w-6 h-6" xmlns="http://www.w3.org/2000/svg">
   <path id="rect11299"
      d="M 240 0 C 107.04013 0 1.4854769e-15 107.04013 0 240 L 0 784 C 0 916.95987 107.04013 1024 240 1024 L 784 1024 C 916.95987 1024 1024 916.95987 1024 784 L 1024 240 C 1024 107.04013 916.95987 0 784 0 L 240 0 z M 512.72266 125 C 536.6316 155.04094 543.98828 208.37803 543.98828 238.41797 C 555.63726 223.09199 562.38014 204.08671 562.99414 184.46875 C 585.6771 211.44369 593.0332 258.0375 593.0332 292.98242 C 602.84218 281.33344 609.58622 266.61965 610.19922 250.67969 C 640.24016 298.49859 659.24595 345.09291 652.50195 388.00781 C 640.24099 471.99865 534.1796 529.01507 512.72266 581.12695 C 435.4758 502.04011 388.26714 448.08859 380.91016 398.42969 C 369.26218 305.24287 502.91268 229.8348 512.72266 125 z M 235 628.33203 L 789.83008 628.33203 L 789.83008 652.24219 C 680.0903 677.99113 645.14562 718.4548 630.43164 762.5957 L 394.39844 762.5957 C 379.07146 718.4548 344.73978 677.99113 235 652.24219 L 235 628.33203 z M 405.43555 810.41406 L 620.00977 810.41406 L 614.49219 842.29297 C 599.16521 842.29297 586.29184 853.32999 583.83984 868.04297 C 575.25686 920.15487 566.05954 971.65184 557.47656 1023.7598 L 467.96875 1023.7598 C 459.38577 971.65184 450.18845 920.15487 441.60547 868.04297 C 439.15347 853.32999 426.27815 842.29297 410.95117 842.29297 C 409.11217 831.87099 407.27455 820.83604 405.43555 810.41406 z "
      style="fill:#ffffff;fill-opacity:1" />
</svg>