<svg xmlns="http://www.w3.org/2000/svg" fill="none" viewBox="0 0 36 36">
  <path fill="#2f6029"
    d="m 13.695142,1.0635405 c -3.125799,0 -8.242935,6.3749918 -9.7801277,6.3749918 -0.7556867,0 -1.1910217,-0.4506519 -1.1910217,-0.9031091 0,-0.4489521 0.25016,-0.9356901 0.7865701,-0.9356901 0.505523,0 1.014549,0.4849326 1.0864888,0.7163091 A 1.0453611,1.0453611 0 0 0 4.843816,5.6699942 C 4.8438489,5.1164967 4.3279986,4.2476078 3.3015073,4.2476078 1.8859885,4.2476078 1,5.3615218 1,6.6947858 c 0,1.2458618 1.0042548,2.5876928 3.1052409,2.5876928 2.354627,0 7.3072431,-6.3115863 9.6413121,-6.3115863 0.712913,0 1.227012,0.6615436 1.227012,1.0436306 0,0.652947 -0.599771,1.1533229 -1.091636,1.1533229 -0.317027,0 -0.752289,-0.2604564 -0.752289,-0.6357521 0,-0.3821945 0.263855,-0.6169668 0.642651,-0.7026172 -0.137127,-0.036087 -0.23647,-0.041389 -0.411274,-0.041389 -0.58778,0 -1.158459,0.5347104 -1.158459,1.3521134 0,0.7900729 0.832845,1.6485827 1.94505,1.6485827 1.002556,0 2.678523,-1.1396085 2.678523,-2.8824505 0,-1.5680483 -1.144746,-2.8430434 -3.130935,-2.8430434 z m 8.609665,0 c -1.986191,0 -3.130947,1.2749971 -3.130947,2.8430435 0,1.742842 1.676009,2.8824505 2.678523,2.8824505 1.112194,0 1.945061,-0.8568326 1.945061,-1.6485826 0,-0.8174568 -0.570691,-1.3521133 -1.158471,-1.3521133 -0.174803,0 -0.274148,0.00518 -0.411274,0.041389 0.378692,0.085965 0.642651,0.320423 0.642651,0.7026174 0,0.3752958 -0.435262,0.6357521 -0.752289,0.6357521 -0.493531,0 -1.091626,-0.5004296 -1.091626,-1.1533228 0,-0.3821927 0.514122,-1.0453286 1.227012,-1.0453286 2.334069,0 7.286676,6.3115852 9.641314,6.3115852 C 33.995768,9.2810305 35,7.9409107 35,6.6950487 34.999948,5.3632263 34.113982,4.2476042 32.700149,4.2476042 c -1.028241,0 -1.542342,0.8688264 -1.542342,1.4223756 0,0.2844427 0.150814,0.5484022 0.245068,0.6460467 0.07217,-0.231375 0.580986,-0.7163075 1.086489,-0.7163075 0.53641,0 0.78657,0.4867377 0.78657,0.9356901 0,0.4524572 -0.435262,0.9014094 -1.191032,0.9014094 -1.535453,-1.05e-5 -6.654297,-6.3732817 -9.780095,-6.3732817 z m -4.304839,3.8044297 c -1.15675,1.4172391 -2.760777,2.6819504 -3.944954,3.1669262 l 0.671734,1.3486862 c 1.187603,-0.6357514 2.604832,-1.5886058 3.273179,-2.505436 0.668335,0.9167991 2.085584,1.8679428 3.273178,2.505436 L 21.944837,8.0348964 C 20.762381,7.5499637 19.156634,6.2852093 17.999884,4.8662517 Z m -6.66631,0.3702007 c -0.370203,0.2587583 -0.839745,0.5689926 -1.113915,0.8843218 0.149115,0.6460466 -0.08385,1.2252921 -0.176503,1.8285255 0.205691,0.1953947 0.579182,0.2776495 1.129335,0.1302308 C 11.698688,7.9390293 11.931763,7.3837268 12.008816,6.8388052 11.535877,6.5131817 11.316495,5.8225565 11.33528,5.2382072 Z m 13.332634,0 c 0.01697,0.5826843 -0.20219,1.2749969 -0.675235,1.6005998 0.07748,0.5450046 0.308429,1.1001997 0.836243,1.2424436 0.548402,0.147417 0.923696,0.064743 1.131042,-0.1302308 C 25.863887,7.3477102 25.631021,6.7685168 25.780142,6.1224599 25.505887,5.8071305 25.036343,5.4970021 24.666227,5.238138 Z M 9.4057362,6.8610592 C 8.6911247,7.5293941 8.0090668,8.2148807 7.135072,8.7804029 c 0,0 0.7471944,0.4455584 1.4840716,-0.091284 0.7368997,-0.5381076 0.788269,-1.8285254 0.788269,-1.8285254 z m 17.1850468,0 c 0,0 0.05096,1.2904159 0.78827,1.8285237 0.736899,0.5364096 1.484073,0.091284 1.484073,0.091284 C 27.989098,8.215377 27.307082,7.5298577 26.590752,6.8615226 Z m -8.590815,1.5217596 c -0.918497,0.6940212 -1.826805,1.4155305 -2.913294,1.9759062 0.783175,3.026414 1.028241,6.777712 1.028241,11.193939 0,4.040921 -0.512421,7.341514 -1.831952,11.041411 1.024846,0.865429 2.404331,1.826815 3.717027,2.342635 1.312705,-0.51582 2.690527,-1.477215 3.717038,-2.342635 -1.319562,-3.699897 -1.833674,-7.00049 -1.833674,-11.041411 0,-4.416227 0.246766,-8.167525 1.028243,-11.193939 C 19.826817,9.7983285 18.91855,9.0768724 18.000001,8.3828188 Z" />
  <style>
    @media (prefers-color-scheme:dark) {
      :root {
        filter: invert(100%)
      }
    }
  </style>
</svg>